<svg 
 xmlns="http://www.w3.org/2000/svg"
 xmlns:xlink="http://www.w3.org/1999/xlink"
 width="20px" height="24px">
<defs>
<linearGradient id="PSgrad_0" x1="0%" x2="0%" y1="100%" y2="0%">
  <stop offset="0%" stop-color="rgb(56,176,221)" stop-opacity="1" />
  <stop offset="54%" stop-color="rgb(118,26,158)" stop-opacity="1" />
  <stop offset="100%" stop-color="rgb(212,88,187)" stop-opacity="1" />
</linearGradient>

</defs>
<path fill-rule="evenodd"  fill-opacity="0" fill="rgb(143, 37, 255)"
 d="M10.000,2.000 C5.578,2.000 2.000,5.526 2.000,9.883 C2.000,11.848 2.615,13.218 3.436,14.431 C4.188,15.520 5.772,17.003 6.809,18.159 C7.948,19.406 10.000,22.000 10.000,22.000 C10.000,22.000 12.735,18.698 13.065,18.328 C13.384,17.957 15.504,15.790 16.427,14.600 C17.350,13.409 18.000,11.713 18.000,9.883 C18.000,5.526 14.421,2.000 10.000,2.000 ZM10.000,13.111 C8.106,13.111 6.571,11.618 6.571,9.778 C6.571,7.937 8.106,6.444 10.000,6.444 C11.893,6.444 13.428,7.937 13.428,9.778 C13.428,11.618 11.893,13.111 10.000,13.111 Z"/>
<path fill="url(#PSgrad_0)"
 d="M10.000,2.000 C5.578,2.000 2.000,5.526 2.000,9.883 C2.000,11.848 2.615,13.218 3.436,14.431 C4.188,15.520 5.772,17.003 6.809,18.159 C7.948,19.406 10.000,22.000 10.000,22.000 C10.000,22.000 12.735,18.698 13.065,18.328 C13.384,17.957 15.504,15.790 16.427,14.600 C17.350,13.409 18.000,11.713 18.000,9.883 C18.000,5.526 14.421,2.000 10.000,2.000 ZM10.000,13.111 C8.106,13.111 6.571,11.618 6.571,9.778 C6.571,7.937 8.106,6.444 10.000,6.444 C11.893,6.444 13.428,7.937 13.428,9.778 C13.428,11.618 11.893,13.111 10.000,13.111 Z"/>
</svg>